<?xml version="1.0" encoding="utf-8"?>
<!-- Generator: Adobe Illustrator 16.0.0, SVG Export Plug-In . SVG Version: 6.00 Build 0)  -->
<!DOCTYPE svg PUBLIC "-//W3C//DTD SVG 1.1//EN" "http://www.w3.org/Graphics/SVG/1.1/DTD/svg11.dtd">
<svg version="1.1" id="Layer_1" xmlns="http://www.w3.org/2000/svg" xmlns:xlink="http://www.w3.org/1999/xlink" x="0px" y="0px"
	 width="512px" height="512px" viewBox="-3.5 -6.5 512 512" enable-background="new -3.5 -6.5 512 512" xml:space="preserve">
<path d="M177.499,25.499H56.368C41.25,25.499,28.5,38.057,28.5,53.574v391.38c0,15.502,12.75,28.546,27.869,28.546h196.619H449.61
	c15.138,0,26.891-13.044,26.891-28.546V53.574c0-15.517-11.753-28.075-26.891-28.075H327.5H177.499z M188.5,89.5h208v32h-208V89.5z
	 M188.5,377.5h208v32h-208V377.5z M188.5,281.5h208v32h-208V281.5z M188.5,185.5h208v32h-208V185.5z M116.5,81.499
	c13.255,0,24,10.745,24,24s-10.745,24-24,24s-24-10.745-24-24S103.245,81.499,116.5,81.499z M116.5,369.499
	c13.255,0,24,10.745,24,24c0,13.257-10.745,24-24,24s-24-10.743-24-24C92.5,380.244,103.245,369.499,116.5,369.499z M116.5,177.499
	c13.255,0,24,10.745,24,24s-10.745,24-24,24s-24-10.745-24-24S103.245,177.499,116.5,177.499z M116.5,273.499
	c13.255,0,24,10.745,24,24c0,13.257-10.745,24-24,24s-24-10.743-24-24C92.5,284.244,103.245,273.499,116.5,273.499z" style="fill:#ffffff"/>
</svg>
