<?xml version="1.0" encoding="utf-8"?>
<!-- Generator: Adobe Illustrator 16.0.0, SVG Export Plug-In . SVG Version: 6.00 Build 0)  -->
<!DOCTYPE svg PUBLIC "-//W3C//DTD SVG 1.1//EN" "http://www.w3.org/Graphics/SVG/1.1/DTD/svg11.dtd">
<svg version="1.1" id="Layer_1" xmlns="http://www.w3.org/2000/svg" xmlns:xlink="http://www.w3.org/1999/xlink" x="0px" y="0px"
	 width="512px" height="512px" viewBox="-3.5 -6.5 512 512" enable-background="new -3.5 -6.5 512 512" xml:space="preserve">
<path d="M355.597,42.549h92.545c7.239,0,13.142,5.903,13.51,13.244l0.093,388.916c-0.351,6.984-5.759,12.539-12.505,13.053
	l-391.433,0.033c-6.745-0.513-12.108-6.186-12.459-13.171L45.255,55.802c0.35-7.344,6.362-13.254,13.583-13.254h92.564H355.597z
	 M177.999,26H56.868C41.75,26,29,38.558,29,54.075v391.38c0,15.502,12.75,28.546,27.869,28.546h196.62h196.621
	c15.138,0,26.89-13.044,26.89-28.546V54.075C477,38.558,465.248,26,450.111,26H328H177.999z M188.5,89.5h208v32h-208V89.5z
	 M188.5,377.5h208v32h-208V377.5z M188.5,281.5h208v32h-208V281.5z M188.5,185.5h208v32h-208V185.5z M117,82
	c13.255,0,24,10.745,24,24s-10.745,24-24,24s-24-10.745-24-24S103.745,82,117,82z M117,370c13.255,0,24,10.746,24,24
	c0,13.255-10.745,24-24,24s-24-10.745-24-24C93,380.746,103.745,370,117,370z M117,178c13.255,0,24,10.745,24,24s-10.745,24-24,24
	s-24-10.745-24-24S103.745,178,117,178z M117,274c13.255,0,24,10.745,24,24s-10.745,24-24,24s-24-10.745-24-24S103.745,274,117,274z
	"/>
</svg>
