<?xml version="1.0" encoding="utf-8"?>
<!-- Generator: Adobe Illustrator 16.0.0, SVG Export Plug-In . SVG Version: 6.00 Build 0)  -->
<!DOCTYPE svg PUBLIC "-//W3C//DTD SVG 1.1//EN" "http://www.w3.org/Graphics/SVG/1.1/DTD/svg11.dtd">
<svg version="1.1" xmlns="http://www.w3.org/2000/svg" xmlns:xlink="http://www.w3.org/1999/xlink" x="0px" y="0px" width="512px"
	 height="512px" viewBox="-3.5 -6.5 512 512" enable-background="new -3.5 -6.5 512 512" xml:space="preserve">
<g id="Layer_1">
</g>
<g id="Ebene_2">
	<g>
		<path fill-rule="evenodd" clip-rule="evenodd" d="M244.869,278.703C289.31,207.915,333.452,137.601,378,66.642
			c27.307,17.139,54.396,34.141,81.79,51.333c-44.481,70.801-88.717,141.208-133.205,212.02
			C299.267,312.847,272.387,295.975,244.869,278.703z" style="fill:#ffffff"/>
		<path fill-rule="evenodd" clip-rule="evenodd" d="M472.034,98.507c-27.595-17.344-54.585-34.309-81.742-51.377
			c5.841-9.257,11.185-18.269,17.069-26.914c7.52-11.05,20.008-13.882,31.54-6.961c14.393,8.637,28.619,17.571,42.645,26.793
			c10.92,7.18,14.014,19.399,7.75,30.563C484.021,80.01,477.972,88.977,472.034,98.507z" style="fill:#ffffff"/>
		<path fill-rule="evenodd" clip-rule="evenodd" d="M230.598,392.051c1.154-31.321,2.27-61.628,3.424-92.961
			c26.609,16.719,52.402,32.925,78.82,49.523C285.217,363.204,258.303,377.418,230.598,392.051z" style="fill:#ffffff"/>
	</g>
	<g>
		<path d="M412.529,230.629l0.064,213.578c-0.351,6.984-5.759,12.539-12.505,13.054L60.5,457.294
			c-6.745-0.514-12.108-6.187-12.459-13.172l-0.093-309.367c0.35-7.345,6.362-13.255,13.583-13.255h86.37h174.476
			c3.46-5.512,6.925-11.031,10.389-16.548H324.5H174.499H59.562c-15.118,0-27.868,12.559-27.868,28.075v311.926
			c0,15.502,12.75,28.547,27.869,28.547h190.426h150.97c15.138,0,26.891-13.045,26.891-28.547V206.245
			C422.746,214.367,417.636,222.501,412.529,230.629z" style="fill:#ffffff"/>
		<circle cx="113.5" cy="291.5" r="24" style="fill:#ffffff"/>
		<circle cx="113.5" cy="387.5" r="24" style="fill:#ffffff"/>
		<circle cx="113.5" cy="195.5" r="24" style="fill:#ffffff"/>
	</g>
</g>
</svg>
