<?xml version="1.0" encoding="utf-8"?>
<!-- Generator: Adobe Illustrator 16.0.0, SVG Export Plug-In . SVG Version: 6.00 Build 0)  -->
<!DOCTYPE svg PUBLIC "-//W3C//DTD SVG 1.1//EN" "http://www.w3.org/Graphics/SVG/1.1/DTD/svg11.dtd">
<svg version="1.1" id="Layer_1" xmlns="http://www.w3.org/2000/svg" xmlns:xlink="http://www.w3.org/1999/xlink" x="0px" y="0px"
	 width="512px" height="512px" viewBox="0 0 512 512" enable-background="new 0 0 512 512" xml:space="preserve">
<path fill="#010101" d="M103,345.25V409h63.75l187.845-187.846l-63.749-63.749L103,345.25z M403.902,171.848
	c6.798-6.798,6.798-17,0-23.799l-39.951-39.951c-6.799-6.798-17.001-6.798-23.799,0L308.7,139.55l63.749,63.749L403.902,171.848z
	 M448,405.48c0,23.482-19.037,42.52-42.52,42.52H106.52C83.037,448,64,428.963,64,405.48V106.519C64,83.036,83.037,64,106.52,64
	h298.961c23.482,0,42.52,19.037,42.52,42.52V405.48z" style="fill:#ffffff"/>
</svg>
