<?xml version="1.0" encoding="utf-8"?>
<!-- Generator: Adobe Illustrator 16.0.0, SVG Export Plug-In . SVG Version: 6.00 Build 0)  -->
<!DOCTYPE svg PUBLIC "-//W3C//DTD SVG 1.1//EN" "http://www.w3.org/Graphics/SVG/1.1/DTD/svg11.dtd">
<svg version="1.1" id="Ebene_2" xmlns="http://www.w3.org/2000/svg" xmlns:xlink="http://www.w3.org/1999/xlink" x="0px" y="0px"
	 width="512px" height="512px" viewBox="28.5 9.5 512 512" enable-background="new 28.5 9.5 512 512" xml:space="preserve">
<path d="M387.597,58.549h92.545c7.239,0,13.142,5.903,13.51,13.244l0.093,388.916c-0.351,6.984-5.759,12.539-12.505,13.053
	l-391.433,0.033c-6.745-0.513-12.108-6.186-12.459-13.171L77.255,71.802c0.35-7.344,6.362-13.254,13.583-13.254h92.564H387.597z
	 M209.999,42H88.868C73.75,42,61,54.558,61,70.075v391.38c0,15.502,12.75,28.546,27.869,28.546h196.62h196.621
	c15.138,0,26.89-13.044,26.89-28.546V70.075C509,54.558,497.248,42,482.111,42H360H209.999z M220.5,105.5h208v32h-208V105.5z
	 M220.5,201.5h208v32h-208V201.5z M149,98c13.255,0,24,10.745,24,24s-10.745,24-24,24s-24-10.745-24-24S135.745,98,149,98z M149,194
	c13.255,0,24,10.745,24,24s-10.745,24-24,24s-24-10.745-24-24S135.745,194,149,194z M149,290c13.255,0,24,10.745,24,24
	s-10.745,24-24,24s-24-10.745-24-24S135.745,290,149,290z M407.883,292.294l-22.024-17.372c-0.683-0.561-1.524-0.963-2.487-0.963
	s-1.846,0.402-2.527,1.004l-80.112,102.938c0,0-31.491-30.288-32.374-31.171c-0.883-0.882-2.047-2.366-3.812-2.366
	c-1.766,0-2.567,1.244-3.49,2.166c-0.683,0.723-11.915,12.517-17.451,18.374c-0.321,0.36-0.521,0.562-0.802,0.842
	c-0.481,0.684-0.802,1.444-0.802,2.287c0,0.882,0.321,1.604,0.802,2.286l1.123,1.045c0,0,55.883,53.676,56.806,54.599
	c0.923,0.922,2.045,2.085,3.69,2.085c1.604,0,2.929-1.725,3.69-2.487l99.931-128.374c0.481-0.682,0.803-1.444,0.803-2.326
	C408.846,293.857,408.445,293.014,407.883,292.294z" style="fill:#ffffff"/>
</svg>
