<?xml version="1.0" encoding="utf-8"?>
<!-- Generator: Adobe Illustrator 16.0.0, SVG Export Plug-In . SVG Version: 6.00 Build 0)  -->
<!DOCTYPE svg PUBLIC "-//W3C//DTD SVG 1.1//EN" "http://www.w3.org/Graphics/SVG/1.1/DTD/svg11.dtd">
<svg version="1.1" id="Layer_1" xmlns="http://www.w3.org/2000/svg" xmlns:xlink="http://www.w3.org/1999/xlink" x="0px" y="0px"
	 width="512px" height="512px" viewBox="-3.5 -6.5 512 512" enable-background="new -3.5 -6.5 512 512" xml:space="preserve">
<path d="M449.611,25.499H327.5H177.499H56.368C41.25,25.499,28.5,38.057,28.5,53.574v391.38c0,15.502,12.75,28.546,27.869,28.546
	h196.62h196.621c15.138,0,26.89-13.044,26.89-28.546V53.574C476.5,38.057,464.748,25.499,449.611,25.499z M116.5,321.499
	c-13.255,0-24-10.744-24-24c0-13.255,10.745-24,24-24s24,10.745,24,24C140.5,310.755,129.755,321.499,116.5,321.499z M116.5,225.499
	c-13.255,0-24-10.745-24-24s10.745-24,24-24s24,10.745,24,24S129.755,225.499,116.5,225.499z M116.5,129.499
	c-13.255,0-24-10.745-24-24s10.745-24,24-24s24,10.745,24,24S129.755,129.499,116.5,129.499z M376.043,281.186L276.113,409.56
	c-0.762,0.763-2.087,2.487-3.69,2.487c-1.646,0-2.768-1.163-3.69-2.085c-0.923-0.923-56.806-54.599-56.806-54.599l-1.123-1.045
	c-0.481-0.682-0.802-1.404-0.802-2.286c0-0.843,0.321-1.604,0.802-2.287c0.281-0.28,0.481-0.481,0.802-0.842
	c5.536-5.857,16.769-17.651,17.451-18.374c0.923-0.922,1.725-2.166,3.49-2.166c1.765,0,2.929,1.484,3.812,2.366
	c0.883,0.883,32.374,31.171,32.374,31.171l80.112-102.938c0.682-0.602,1.564-1.004,2.527-1.004s1.805,0.402,2.487,0.963
	l22.024,17.372c0.562,0.721,0.963,1.563,0.963,2.566C376.846,279.742,376.525,280.505,376.043,281.186z M396.5,217.5h-208v-32h208
	V217.5z M396.5,121.5h-208v-32h208V121.5z" style="fill:#ffffff"/>
</svg>
