<?xml version="1.0" encoding="utf-8"?>
<!-- Generator: Adobe Illustrator 16.0.0, SVG Export Plug-In . SVG Version: 6.00 Build 0)  -->
<!DOCTYPE svg PUBLIC "-//W3C//DTD SVG 1.1//EN" "http://www.w3.org/Graphics/SVG/1.1/DTD/svg11.dtd">
<svg version="1.1" id="Layer_1" xmlns="http://www.w3.org/2000/svg" xmlns:xlink="http://www.w3.org/1999/xlink" x="0px" y="0px"
	 width="512px" height="512px" viewBox="-3.5 -6.5 512 512" enable-background="new -3.5 -6.5 512 512" xml:space="preserve">
<g>
	<path d="M244.009,295.599c5.133,4.407,12.886,4.304,18.072-0.388L451.63,106.534c-1.114-0.308-2.28-0.486-3.488-0.486h-92.545
		H151.403H58.838c-1.33,0-2.617,0.204-3.836,0.576L244.009,295.599z" style="fill:#ffffff"/>
	<path d="M461.552,118.271l-132.47,131.801l29.131,29.131l103.23,103.229c0.153-0.723,0.263-1.463,0.301-2.225l-0.093-260.915
		C461.634,118.948,461.593,118.609,461.552,118.271z" style="fill:#ffffff"/>
	<path d="M45.372,380.381l130.556-129.897L94.11,168.666l-48.855-48.855l0.093,260.312C45.352,380.21,45.366,380.294,45.372,380.381
		z" style="fill:#ffffff"/>
	<path d="M448.868,393.26L327.705,272.097l-10.354-10.354l-45.011,44.783c-10.962,10.962-28.495,11.875-39.199,1.171l-45.705-45.705
		L55.847,392.978c0.639,0.149,1.29,0.265,1.96,0.315L448.868,393.26z" style="fill:#ffffff"/>
</g>
</svg>
