<?xml version="1.0" encoding="utf-8"?>
<!-- Generator: Adobe Illustrator 16.0.0, SVG Export Plug-In . SVG Version: 6.00 Build 0)  -->
<!DOCTYPE svg PUBLIC "-//W3C//DTD SVG 1.1//EN" "http://www.w3.org/Graphics/SVG/1.1/DTD/svg11.dtd">
<svg version="1.1" id="Layer_1" xmlns="http://www.w3.org/2000/svg" xmlns:xlink="http://www.w3.org/1999/xlink" x="0px" y="0px"
	 width="512px" height="512px" viewBox="-3.5 -6.5 512 512" enable-background="new -3.5 -6.5 512 512" xml:space="preserve">
<path d="M450.111,89.5H328H177.999H56.868C41.75,89.5,29,102.058,29,117.575v263.379c0,15.502,12.75,28.546,27.869,28.546h196.62
	h196.621c15.138,0,26.89-13.044,26.89-28.546V117.575C477,102.058,465.248,89.5,450.111,89.5z M461.552,118.271
	c0.041,0.338,0.082,0.677,0.1,1.022l0.093,260.915c-0.038,0.762-0.147,1.502-0.301,2.225l-103.23-103.229l-29.131-29.131
	L461.552,118.271z M58.838,106.049h92.564h204.194h92.545c1.208,0,2.374,0.178,3.488,0.486L262.081,295.212
	c-5.187,4.691-12.939,4.795-18.072,0.388L55.002,106.625C56.221,106.252,57.509,106.049,58.838,106.049z M45.372,380.381
	c-0.006-0.087-0.02-0.171-0.024-0.258l-0.093-260.312l48.855,48.855l81.818,81.818L45.372,380.381z M57.807,393.294
	c-0.67-0.051-1.321-0.166-1.96-0.315l131.59-130.985l45.705,45.705c10.704,10.704,28.237,9.791,39.199-1.171l45.011-44.783
	l10.354,10.354L448.868,393.26L57.807,393.294z" style="fill:#ffffff"/>
</svg>
