<?xml version="1.0" encoding="utf-8"?>
<!-- Generator: Adobe Illustrator 16.0.0, SVG Export Plug-In . SVG Version: 6.00 Build 0)  -->
<!DOCTYPE svg PUBLIC "-//W3C//DTD SVG 1.1//EN" "http://www.w3.org/Graphics/SVG/1.1/DTD/svg11.dtd">
<svg version="1.1" id="Layer_1" xmlns="http://www.w3.org/2000/svg" xmlns:xlink="http://www.w3.org/1999/xlink" x="0px" y="0px"
	 width="512px" height="512px" viewBox="-3.5 -6.5 512 512" enable-background="new -3.5 -6.5 512 512" xml:space="preserve">
<path d="M251.97,271.744c-64.22,0-116.464-55.232-116.464-123.122c0-67.89,52.244-123.122,116.464-123.122
	c64.219,0,116.465,55.232,116.465,123.122C368.435,216.512,316.189,271.744,251.97,271.744z M108.5,409.5h16v64.104l256-0.077V409.5
	h16v64.022l80-0.024l-0.561-70.682c0.12-17.5-7.482-33.937-22.594-48.855c-45.063-44.489-146.805-65.216-201.376-65.216
	c-33.999,0-89.651,8.399-137.343,27.163C58.234,338.095,28.279,368.126,28,402.75l0.56,70.884l79.94-0.024V409.5z" style="fill:#ffffff"/>
</svg>
