<?xml version="1.0" encoding="utf-8"?>
<!-- Generator: Adobe Illustrator 16.0.0, SVG Export Plug-In . SVG Version: 6.00 Build 0)  -->
<!DOCTYPE svg PUBLIC "-//W3C//DTD SVG 1.1//EN" "http://www.w3.org/Graphics/SVG/1.1/DTD/svg11.dtd">
<svg version="1.1" id="Layer_1" xmlns="http://www.w3.org/2000/svg" xmlns:xlink="http://www.w3.org/1999/xlink" x="0px" y="0px"
	 width="512px" height="512px" viewBox="-3.5 -6.5 512 512" enable-background="new -3.5 -6.5 512 512" xml:space="preserve">
<path d="M458.582,473.634l-0.56-70.884c0.102-12.677-5.751-24.933-17.395-36.429c-39.673-39.166-135.057-60.026-188.658-60.026
	c-32.274,0-85.193,8.009-130.665,25.898c-28.014,11.022-75.043,34.851-75.388,70.63l0.56,70.676l-17.917,0.135L28,402.75
	c0.279-34.624,30.234-64.654,86.626-86.842c47.692-18.764,103.344-27.163,137.343-27.163c54.571,0,156.313,20.727,201.376,65.216
	c15.111,14.919,22.714,31.355,22.594,48.855l0.561,70.682L458.582,473.634z M251.97,271.744
	c-64.22,0-116.464-55.232-116.464-123.122c0-67.89,52.244-123.122,116.464-123.122c64.219,0,116.465,55.232,116.465,123.122
	C368.435,216.512,316.189,271.744,251.97,271.744z M251.97,43.049c-54.339,0-98.546,47.361-98.546,105.573
	c0,58.212,44.208,105.572,98.546,105.572s98.548-47.36,98.548-105.572C350.518,90.41,306.309,43.049,251.97,43.049z M108.5,473.5h16
	v-64h-16V473.5z M380.5,473.5h16v-64h-16V473.5z" style="fill:#ffffff"/>
</svg>
